# xmcd
#
# Track frame offsets:
#	150
#	11149
#	24166
#	38335
#	56542
#	69587
#	81785
#	96842
#	110718
#	125671
#	143483
#	157623
#	173838
#
# Disc length: 2446 seconds
#
# Revision: 1
# Processed by: cddbd v1.5.2PL0 Copyright (c) Steve Scherf et al.
# Submitted via: audiograbber 1.83.01
#
DISCID=99098c0d
DTITLE=Various Artist - The Dukes Of Hazzard
DYEAR=1982
DGENRE=Soundtrack
TTITLE0=The Hazzard County Boys - Good Ol' Boys [Theme from the Dukes of Hazzar
TTITLE0=d]
TTITLE1=Johnny Cash - The General Lee
TTITLE2=The Hazzard County Boys - Laughing All the Way to the Bank
TTITLE3=Tom Wopat - Up on Cripple Creek
TTITLE4=Doug Kershaw and The Hazzard County Boys - Cover Girl Eyes
TTITLE5=John Schneider - In the Driver's Seat
TTITLE6=James Best - Flash
TTITLE7=Catherine Bach - Down Home American Girl
TTITLE8=Sorrell Booke - Duellin' Dukes
TTITLE9=Doug Kershaw and The Hazzard County Boys - Keep Between Them Ditches
TTITLE10=Doug Kershaw and The Hazzard County Boys - Ballad Of The General Lee
TTITLE11=John Schneider - Them Good Ol' Boys Are Bad
TTITLE12=Waylon Jennings - Dukes Of Hazzard Theme
EXTD=
EXTT0=
EXTT1=
EXTT2=
EXTT3=
EXTT4=
EXTT5=
EXTT6=
EXTT7=
EXTT8=
EXTT9=
EXTT10=
EXTT11=
EXTT12=
PLAYORDER=
